# xmcd
#
# Track frame offsets:
#	150
#	18731
#	37974
#	55848
#	83009
#	103365
#	125972
#	146260
#	164786
#	193682
# Disc length: 2799 seconds
# Revision: 7
# Processed by: cddbd v1.5.1PL0 Copyright (c) Steve Scherf et al.
#
# Submitted via: libkcddb 0.10
#
DISCID=900aed0a
DTITLE=Various Artist - #1s - Their Greatest Hits
DYEAR=2004
DGENRE=Indian Rock
TTITLE0=Kailash Kher - Allah Ke Bande
TTITLE1=Babul Supriyo - Sochta Hun Uska Dil
TTITLE2=Lucky Ali - Dekha Hai Aise Bhi
TTITLE3=K K - Pyar Ke Pal
TTITLE4=Jal Walia - Aankhon Mein
TTITLE5=Junoon - Sayonee
TTITLE6=Bombay Vikings - Woh Chali Woh Chali
TTITLE7=Shiamak Davar - Mohabbat Kar Le Re
TTITLE8=Bali Brahmbhatt - Tere Bin Jeena Nahin
TTITLE9=Shaan - Bhool Ja
EXTD=
EXTT0=
EXTT1=
EXTT2=
EXTT3=
EXTT4=
EXTT5=
EXTT6=
EXTT7=
EXTT8=
EXTT9=
PLAYORDER=
